<svg width="17" height="17" xmlns="http://www.w3.org/2000/svg" version="1"><polyline points="9 2 15 2 15 4 10 4 10 8 14 8 14 9 10 9 10 15 9 15 9 2" style="fill:#fffbdb;stroke-linecap:square;stroke-linejoin:miter;stroke-width:1;stroke:#fffbdb"/><polyline points="2 2 8 2 8 15 7 15 7 4 2 4 2 2" style="fill:#9b8c7a;stroke-linecap:square;stroke-linejoin:miter;stroke-width:1;stroke:#9b8c7a"/><polyline points="1 1 16 1 16 5 11 5 11 7 15 7 15 10 11 10 11 16 6 16 6 5 1 5 1 1" style="fill:none;stroke-linecap:square;stroke-linejoin:miter;stroke-width:1;stroke:black"/></svg>