<?xml version="1.0" standalone="no"?>
<svg width="500" height="500" xmlns:xlink="http://www.w3.org/1999/xlink" xmlns="http://www.w3.org/2000/svg" viewBox="0 0 500 500" aria-labelledby="title desc">
	<title id="title">goodMorning</title>
	<desc id="desc"></desc>
    <rect x="0" y="0" width="100%" height="100%" fill="#E3B5A5" />


    <circle cx="250" cy="250" r="195" fill="none" stroke="#804736" stroke-width="110" /> //"бублик"
    <circle cx="70" cy="190" r="15" fill="#E3B5A5" /> //левый круг
    <circle cx="430" cy="190" r="15" fill="#E3B5A5" /> //правый круг
    <line x1="25" y1="310" x2="105" y2="310" stroke="#E3B5A5" stroke-width="10" stroke-linecap="round"/> /* левая полоса в круге */
    <line x1="395" y1="310" x2="475" y2="310" stroke="#E3B5A5" stroke-width="10" stroke-linecap="round"/> /* правая полоса в круге */


    <polygon points="170,200 200,360 300,360 330,200" stroke="#804736" fill="none" stroke-width="5" stroke-linejoin="round" stroke-linecap="round" />//стакан

    <polygon points="155,200 165,170 335,170 345,200" stroke="#804736" fill="none" stroke-width="5" stroke-linejoin="round" stroke-linecap="round" />

    <polygon points="180,150 175,170 330,170 320,150" stroke="#804736" fill="none" stroke-width="5" stroke-linejoin="round" stroke-linecap="round" />

    <rect x="240" y="160" fill="#E3B5A5" width="50" height="20" />

    //полоса посередине
    <rect x="0" y="220" height="70" width="100%" fill="#E3B5A5" opacity="1" />



    	<symbol id="half">
		<path d="m 20,40 c 4.3,3.8 12,-3.2 14.5,-12 2.3,-9 -1,-23 -13,-24.4 11,13 -10.9,26 -1.3,36.6 z" stroke="#E3B5A5" fill="#804736"/>
	</symbol>
	<symbol id="seed">
		<use xlink:href="#half" />
		<use xlink:href="#half" transform="rotate(180, 20, 22.4)"  />
	</symbol>
	<g id="pattern">
    <use xlink:href="#seed" x="200" y="200" transform="scale(1.2) rotate(-40 250 250) translate(0 -40)"/>
	<use xlink:href="#seed" x="230" y="230" transform="translate(-50, -50) scale(1.2)" />
    <use xlink:href="#seed" x="200" y="200" transform="scale(1.2) rotate(40 250 250) translate(-3 13)"/>
	</g>

<defs>

    <defs id="def1">
        <style type="text/css">
            @import url('https://fonts.googleapis.com/css?family=Concert+One'); 
			text { font-size: 36; font-family: "Concert One"; }
        </style>
    </defs>

<path id="textpath" fill="none" stroke="#000000" d="M100,37c34.8,0,63,28.2,63,63s-28.2,63-63,63s-63-28.2-63-63S65.2,37,100,37z" transform="scale(2.6)" />
<path d="M15,100a85,85 0 1,0 170,0a85,85 0 1,0 -170,0" transform="scale(2.4)" id="coffeecircle" />
</defs>

<text x="0" y="0" font-family="Concert One" font-style="normal" font-weight="bold" font-size="110"  transform="translate(-23, -5) rotate(-60 250 250)"  fill="black" >
<textPath xlink:href="#textpath" >
g o o d
</textPath>
</text>


<text x="0" y="0" font-family="Concert One" font-style="normal" font-weight="bold" font-size="80" transform="translate(10, 20) rotate(-23 250 250) scale(1)" fill="black">
<textPath xlink:href="#coffeecircle">
m o r n i n g
</textPath>
</text>

</svg>